<?xml version="1.0" encoding="UTF-8"?>
<svg width="14px" height="14px" viewBox="0 0 14 14" version="1.1" xmlns="http://www.w3.org/2000/svg" xmlns:xlink="http://www.w3.org/1999/xlink">
    <title>形状结合</title>
    <g id="页面-1" stroke="none" stroke-width="1" fill="none" fill-rule="evenodd">
        <g id="10_省内二干开环监控" transform="translate(-945.000000, -207.000000)" fill="#FFFFFF">
            <g id="蒙版-2" transform="translate(488.000000, 100.000000)">
                <g id="编组-5" transform="translate(444.000000, 94.000000)">
                    <g id="编组-16备份-57" transform="translate(13.000000, 13.000000)">
                        <path d="M14,4.571 L14,12.5625 C14,12.8041246 13.8041246,13 13.5625,13 L0.4375,13 C0.195875422,13 2.95904766e-17,12.8041246 0,12.5625 L0,4.571 L14,4.571 Z M9.40625,6.24738675 L9.40625,6.77003484 L7.70525,6.77003484 L5.7124375,9.27874564 L4.59375,9.27874564 L4.59375,8.75609756 L3.5,9.5923345 L4.59375,10.4285714 L4.59375,9.90592335 L6.038375,9.90592335 L8.03075,7.39721254 L9.40625,7.39721254 L9.40625,7.91986063 L10.5,7.08362369 L9.40625,6.24738675 Z M7.62059375,8.33442509 L7.21875,8.86585365 L7.961625,9.80139373 L9.40625,9.80139373 L9.40625,10.3240418 L10.5,9.48780488 L9.40625,8.65156794 L9.40625,9.17421602 L8.2875625,9.17421602 L7.62059375,8.33442509 Z M4.59375,6.14285714 L3.5,6.97909408 L4.59375,7.81533101 L4.59375,7.29268293 L5.96903125,7.29268293 L6.45159375,7.89979094 L6.84971875,7.36418118 L6.29496875,6.66550522 L4.59375,6.66550522 L4.59375,6.14285714 Z M11.998713,1 C12.1543173,1 12.2982117,1.08264868 12.3766162,1.21705643 L13.9404033,3.89783418 C13.9592153,3.93008336 13.9737379,3.9644612 13.9837358,4.00009722 L0.0162641837,4.00009722 C0.0262620791,3.9644612 0.0407847057,3.93008336 0.0595967309,3.89783418 L1.62338375,1.21705643 C1.70178827,1.08264868 1.84568268,1 2.00128702,1 L11.998713,1 Z M3.5,2.42857143 L3.0625,2.42857143 C2.82087542,2.42857143 2.625,2.62444685 2.625,2.86607143 L2.625,2.86607143 L2.625,2.99107143 C2.625,3.23269601 2.82087542,3.42857143 3.0625,3.42857143 L3.0625,3.42857143 L3.5,3.42857143 C3.74162458,3.42857143 3.9375,3.23269601 3.9375,2.99107143 L3.9375,2.99107143 L3.9375,2.86607143 C3.9375,2.62444685 3.74162458,2.42857143 3.5,2.42857143 L3.5,2.42857143 Z M5.6875,2.42857143 L5.25,2.42857143 C5.00837542,2.42857143 4.8125,2.62444685 4.8125,2.86607143 L4.8125,2.86607143 L4.8125,2.99107143 C4.8125,3.23269601 5.00837542,3.42857143 5.25,3.42857143 L5.25,3.42857143 L5.6875,3.42857143 C5.92912458,3.42857143 6.125,3.23269601 6.125,2.99107143 L6.125,2.99107143 L6.125,2.86607143 C6.125,2.62444685 5.92912458,2.42857143 5.6875,2.42857143 L5.6875,2.42857143 Z M7.875,2.42857143 L7.4375,2.42857143 C7.19587542,2.42857143 7,2.62444685 7,2.86607143 L7,2.86607143 L7,2.99107143 C7,3.23269601 7.19587542,3.42857143 7.4375,3.42857143 L7.4375,3.42857143 L7.875,3.42857143 C8.11662458,3.42857143 8.3125,3.23269601 8.3125,2.99107143 L8.3125,2.99107143 L8.3125,2.86607143 C8.3125,2.62444685 8.11662458,2.42857143 7.875,2.42857143 L7.875,2.42857143 Z" id="形状结合"></path>
                    </g>
                </g>
            </g>
        </g>
    </g>
</svg>